<?xml version="1.0" encoding="utf-8"?><svg xmlns="http://www.w3.org/2000/svg" xmlns:xlink="http://www.w3.org/1999/xlink" width="1920" height="912" preserveAspectRatio="xMidYMid" viewBox="0 0 1920 912" style="z-index:1;margin-right:-2px;display:block;background-repeat-y:initial;background-repeat-x:initial;background-color:rgb(241, 242, 243);animation-play-state:paused" ><g transform="translate(960,456) scale(1,1) translate(-960,-456)" style="transform:matrix(1, 0, 0, 1, 0, 0);animation-play-state:paused" ><linearGradient id="lg-0.8495006245704804" x1="0" x2="0.5" y1="0" y2="0" gradientUnits="objectBoundingBox" style="animation-play-state:paused" ><stop stop-color="#0055a5" offset="0" style="animation-play-state:paused" ></stop>

  
<stop stop-color="#45aee7" offset="1" style="animation-play-state:paused" ></stop></linearGradient>
<path d="M -914.382 912 Q -858.911 705.475 -775.658 495.961 T -373.064 120.646 T 253.992 -177.205 T 1044.13 -368.437 T 1920 -434.332 T 2795.87 -368.437 T 3586.01 -177.205 T 4213.06 120.646 T 4615.66 495.961 T 4754.38 912" fill="url(#lg-0.8495006245704804)" opacity="0.9" style="opacity:0.9;animation-play-state:paused" ></path>
<path d="M -630.944 912 Q -504.495 704.633 -477.103 497.575 T -34.1366 133.135 T 644.528 -137.362 T 1477.03 -281.29 T 2362.97 -281.29 T 3195.47 -137.362 T 3874.14 133.135 T 4317.1 497.575 T 4470.94 912" fill="url(#lg-0.8495006245704804)" opacity="0.9" style="opacity:0.9;animation-play-state:paused" ></path>
<path d="M -347.506 912 Q -203.86 707.957 -174.902 499.825 T 316.631 150.4 T 1052.26 -83.0786 T 1920 -165.065 T 2787.74 -83.0786 T 3523.37 150.4 T 4014.9 499.825 T 4187.51 912" fill="url(#lg-0.8495006245704804)" opacity="0.9" style="opacity:0.9;animation-play-state:paused" ></path>
<path d="M -64.0677 912 Q 107.887 715.793 132.417 503.094 T 682.954 175.177 T 1478.5 -6.8034 T 2361.5 -6.8034 T 3157.05 175.177 T 3707.58 503.094 T 3904.07 912" fill="url(#lg-0.8495006245704804)" opacity="0.9" style="opacity:0.9;animation-play-state:paused" ></path>
<path d="M 219.371 912 Q 296.44 716.435 447.212 508.101 T 1069.69 212.426 T 1920 104.201 T 2770.31 212.426 T 3392.79 508.101 T 3620.63 912" fill="url(#lg-0.8495006245704804)" opacity="0.9" style="opacity:0.9;animation-play-state:paused" ></path>
<path d="M 502.809 912 Q 658.79 715.512 773.468 516.323 T 1482.06 271.781 T 2357.94 271.781 T 3066.53 516.323 T 3337.19 912" fill="url(#lg-0.8495006245704804)" opacity="0.9" style="opacity:0.9;animation-play-state:paused" ></path>
<path d="M 786.247 912 Q 959.772 724.255 1118.32 531.2 T 1920 373.467 T 2721.68 531.2 T 3053.75 912" fill="url(#lg-0.8495006245704804)" opacity="0.9" style="opacity:0.9;animation-play-state:paused" ></path>
<path d="M 1069.69 912 Q 1248.58 728.988 1494.84 562.213 T 2345.16 562.213 T 2770.31 912" fill="url(#lg-0.8495006245704804)" opacity="0.9" style="opacity:0.9;animation-play-state:paused" ></path>
<path d="M 1353.12 912 Q 1590.52 735.118 1920 642.734 T 2486.88 912" fill="url(#lg-0.8495006245704804)" opacity="0.9" style="opacity:0.9;animation-play-state:paused" ></path>
<path d="M 1636.56 912 Q 1920 781.815 2203.44 912" fill="url(#lg-0.8495006245704804)" opacity="0.9" style="opacity:0.9;animation-play-state:paused" ></path></g></svg>