<?xml version="1.0" encoding="utf-8"?><svg xmlns="http://www.w3.org/2000/svg" xmlns:xlink="http://www.w3.org/1999/xlink" width="3000" height="1368" preserveAspectRatio="xMidYMid" viewBox="0 0 3000 1368" style="z-index:1;margin-right:-2px;display:block;background-repeat-y:initial;background-repeat-x:initial;background-color:rgb(241, 242, 243);animation-play-state:paused" ><g transform="translate(1500,684) scale(1,1) translate(-1500,-684)" style="transform:matrix(1, 0, 0, 1, 0, 0);animation-play-state:paused" ><linearGradient id="lg-0.16275004684357497" x1="0" x2="0.5" y1="0" y2="0" gradientUnits="objectBoundingBox" style="animation-play-state:paused" ><stop stop-color="#0055a5" offset="0" style="animation-play-state:paused" ></stop>

  
<stop stop-color="#000000" offset="1" style="animation-play-state:paused" ></stop></linearGradient>
<path d="M -2608.26 1368 Q -2462.41 1170.82 -2539.21 967.94 T -2333.77 577.731 T -1996.99 206.981 T -1537.17 -135.181 T -965.636 -440.33 T -296.45 -700.951 T 453.905 -910.628 T 1266.95 -1064.2 T 2122.68 -1157.88 T 3000 -1189.36 T 3877.32 -1157.88 T 4733.05 -1064.2 T 5546.09 -910.628 T 6296.45 -700.951 T 6965.64 -440.33 T 7537.17 -135.181 T 7996.99 206.981 T 8333.77 577.731 T 8539.21 967.94 T 8608.26 1368" fill="url(#lg-0.16275004684357497)" opacity="1" style="animation-play-state:paused" ></path>
<path d="M -2327.84 1368 Q -2190.46 1171.65 -2255.18 968.118 T -2039.17 579.144 T -1685.7 211.688 T -1204.42 -124.228 T -608.45 -419.439 T 85.9462 -665.893 T 859.83 -856.868 T 1692.09 -987.154 T 2560.03 -1053.2 T 3439.97 -1053.2 T 4307.91 -987.154 T 5140.17 -856.868 T 5914.05 -665.893 T 6608.45 -419.439 T 7204.42 -124.228 T 7685.7 211.688 T 8039.17 579.144 T 8255.18 968.118 T 8327.84 1368" fill="url(#lg-0.16275004684357497)" opacity="1" style="animation-play-state:paused" ></path>
<path d="M -2047.43 1368 Q -1920.67 1168.69 -1970.75 968.326 T -1743.03 580.797 T -1371.2 217.186 T -866.556 -111.458 T -244.425 -395.149 T 476.285 -625.268 T 1273.68 -794.823 T 2123.52 -898.661 T 3000 -933.628 T 3876.48 -898.661 T 4726.32 -794.823 T 5523.71 -625.268 T 6244.43 -395.149 T 6866.56 -111.458 T 7371.2 217.186 T 7743.03 580.797 T 7970.75 968.326 T 8047.43 1368" fill="url(#lg-0.16275004684357497)" opacity="1" style="animation-play-state:paused" ></path>
<path d="M -1767.02 1368 Q -1670.74 1170.85 -1685.85 968.573 T -1445.11 582.747 T -1053 223.663 T -522.868 -96.4525 T 127.23 -366.698 T 875.158 -577.87 T 1695.44 -722.778 T 2560.16 -796.487 T 3439.84 -796.487 T 4304.56 -722.778 T 5124.84 -577.87 T 5872.77 -366.698 T 6522.87 -96.4525 T 7053 223.663 T 7445.11 582.747 T 7685.85 968.573 T 7767.02 1368" fill="url(#lg-0.16275004684357497)" opacity="1" style="animation-play-state:paused" ></path>
<path d="M -1486.6 1368 Q -1428.32 1171.17 -1400.4 968.866 T -1145.08 585.071 T -730.475 231.364 T -172.508 -78.6638 T 507.376 -333.097 T 1283.05 -522.157 T 2124.71 -638.58 T 3000 -677.892 T 3875.29 -638.58 T 4716.95 -522.157 T 5492.62 -333.097 T 6172.51 -78.6638 T 6730.48 231.364 T 7145.08 585.071 T 7400.4 968.866 T 7486.6 1368" fill="url(#lg-0.16275004684357497)" opacity="1" style="animation-play-state:paused" ></path>
<path d="M -1206.19 1368 Q -1074.65 1169.83 -1114.28 969.221 T -842.547 587.87 T -402.881 240.614 T 185.508 -57.3692 T 896.904 -293.057 T 1700.22 -456.149 T 2560.33 -539.516 T 3439.67 -539.516 T 4299.78 -456.149 T 5103.1 -293.057 T 5814.49 -57.3692 T 6402.88 240.614 T 6842.55 587.87 T 7114.28 969.221 T 7206.19 1368" fill="url(#lg-0.16275004684357497)" opacity="1" style="animation-play-state:paused" ></path>
<path d="M -925.779 1368 Q -802.649 1170.92 -827.351 969.653 T -537.005 591.281 T -69.2975 251.857 T 552.317 -31.5997 T 1296.67 -244.874 T 2126.43 -377.272 T 3000 -422.155 T 3873.57 -377.272 T 4703.33 -244.874 T 5447.68 -31.5997 T 6069.3 251.857 T 6537 591.281 T 6827.35 969.653 T 6925.78 1368" fill="url(#lg-0.16275004684357497)" opacity="1" style="animation-play-state:paused" ></path>
<path d="M -645.366 1368 Q -528.952 1174.96 -539.438 970.189 T -227.811 595.497 T 271.404 265.7 T 929.196 -0.0353406 T 1707.34 -186.265 T 2560.6 -282.167 T 3439.4 -282.167 T 4292.66 -186.265 T 5070.8 -0.0353406 T 5728.6 265.7 T 6227.81 595.497 T 6539.44 970.189 T 6645.37 1368" fill="url(#lg-0.16275004684357497)" opacity="1" style="animation-play-state:paused" ></path>
<path d="M -364.953 1368 Q -221.724 1169.48 -250.295 970.863 T 85.8649 600.791 T 620.619 283.002 T 1317.52 39.1544 T 2129.09 -114.135 T 3000 -166.419 T 3870.91 -114.135 T 4682.48 39.1544 T 5379.38 283.002 T 5914.14 600.791 T 6250.3 970.863 T 6364.95 1368" fill="url(#lg-0.16275004684357497)" opacity="1" style="animation-play-state:paused" ></path>
<path d="M -84.5406 1368 Q -24.1315 1174.78 40.405 971.729 T 405.119 607.561 T 980.055 305 T 1718.64 88.5567 T 2561.02 -24.2338 T 3438.98 -24.2338 T 4281.36 88.5567 T 5019.94 305 T 5594.88 607.561 T 5959.6 971.729 T 6084.54 1368" fill="url(#lg-0.16275004684357497)" opacity="1" style="animation-play-state:paused" ></path>
<path d="M 195.872 1368 Q 270.581 1171.11 333.116 972.865 T 731.413 616.409 T 1351.78 333.524 T 2133.48 151.901 T 3000 89.3177 T 3866.52 151.901 T 4648.23 333.524 T 5268.59 616.409 T 5666.88 972.865 T 5804.13 1368" fill="url(#lg-0.16275004684357497)" opacity="1" style="animation-play-state:paused" ></path>
<path d="M 476.285 1368 Q 632.402 1172.77 628.484 974.398 T 1066.72 628.271 T 1738.14 371.366 T 2561.76 234.669 T 3438.24 234.669 T 4261.86 371.366 T 4933.28 628.271 T 5371.52 974.398 T 5523.71 1368" fill="url(#lg-0.16275004684357497)" opacity="1" style="animation-play-state:paused" ></path>
<path d="M 756.698 1368 Q 896.61 1173.26 927.459 976.536 T 1413.75 644.668 T 2141.53 422.921 T 3000 345.054 T 3858.47 422.921 T 4586.25 644.668 T 5072.54 976.536 T 5243.3 1368" fill="url(#lg-0.16275004684357497)" opacity="1" style="animation-play-state:paused" ></path>
<path d="M 1037.11 1368 Q 1115.5 1169.98 1231.5 979.64 T 1776.16 668.2 T 2563.22 495.364 T 3436.78 495.364 T 4223.84 668.2 T 4768.5 979.64 T 4962.89 1368" fill="url(#lg-0.16275004684357497)" opacity="1" style="animation-play-state:paused" ></path>
<path d="M 1317.52 1368 Q 1422.39 1177.46 1542.93 984.395 T 2158.76 703.577 T 3000 600.791 T 3841.24 703.577 T 4457.07 984.395 T 4682.48 1368" fill="url(#lg-0.16275004684357497)" opacity="1" style="animation-play-state:paused" ></path>
<path d="M 1597.94 1368 Q 1704.11 1175.86 1865.71 992.205 T 2566.74 759.95 T 3433.26 759.95 T 4134.29 992.205 T 4402.06 1368" fill="url(#lg-0.16275004684357497)" opacity="1" style="animation-play-state:paused" ></path>
<path d="M 1878.35 1368 Q 2039.63 1187.85 2206.87 1006.33 T 3000 856.527 T 3793.13 1006.33 T 4121.65 1368" fill="url(#lg-0.16275004684357497)" opacity="1" style="animation-play-state:paused" ></path>
<path d="M 2158.76 1368 Q 2289.37 1187.87 2579.38 1035.79 T 3420.62 1035.79 T 3841.24 1368" fill="url(#lg-0.16275004684357497)" opacity="1" style="animation-play-state:paused" ></path>
<path d="M 2439.17 1368 Q 2644.79 1220.96 3000 1112.26 T 3560.83 1368" fill="url(#lg-0.16275004684357497)" opacity="1" style="animation-play-state:paused" ></path>
<path d="M 2719.59 1368 Q 3000 1259.07 3280.41 1368" fill="url(#lg-0.16275004684357497)" opacity="1" style="animation-play-state:paused" ></path></g></svg>